<svg id="Capa_1" data-name="Capa 1" xmlns="http://www.w3.org/2000/svg" viewBox="0 0 220 160"><defs><style>.cls-1{fill:#1d1d1b;fill-rule:evenodd;}</style></defs><title>template-trabajos-+++_10</title><path class="cls-1" d="M110,108.34a32.73,32.73,0,0,0,0-56.7,32.74,32.74,0,0,0,0,56.7Zm16.41-61a8.15,8.15,0,0,1-8.17-8.14V31l-4.09,7.09L110,31l-4.13,7.13L101.76,31l0,8.1a8.16,8.16,0,0,1-8.14,8.19,32.68,32.68,0,1,0,16.32,61A32.7,32.7,0,0,0,159,80a32.65,32.65,0,0,0-32.6-32.68Z"/><path class="cls-1" d="M110,77.28A2.73,2.73,0,1,1,107.29,80,2.73,2.73,0,0,1,110,77.28Z"/><path class="cls-1" d="M101.84,77.28A2.73,2.73,0,1,1,99.12,80a2.72,2.72,0,0,1,2.72-2.73Z"/><path class="cls-1" d="M118.19,77.28A2.73,2.73,0,1,1,115.46,80a2.72,2.72,0,0,1,2.73-2.73Z"/><path class="cls-1" d="M110,93.64a2.73,2.73,0,1,1-2.72,2.73A2.73,2.73,0,0,1,110,93.64Z"/><path class="cls-1" d="M110,66.37a2.73,2.73,0,1,0-2.72-2.72A2.72,2.72,0,0,0,110,66.37Z"/><path class="cls-1" d="M114.07,85.46a2.72,2.72,0,1,1-2.73,2.72,2.72,2.72,0,0,1,2.73-2.72Z"/><path class="cls-1" d="M114.07,74.56a2.73,2.73,0,1,0-2.73-2.73,2.72,2.72,0,0,0,2.73,2.73Z"/><path class="cls-1" d="M105.91,85.46a2.72,2.72,0,1,1-2.73,2.72,2.72,2.72,0,0,1,2.73-2.72Z"/><path class="cls-1" d="M105.91,74.56a2.73,2.73,0,1,0-2.73-2.73,2.72,2.72,0,0,0,2.73,2.73Z"/><path class="cls-1" d="M59.77,115.41h50A16.34,16.34,0,0,1,93.67,129a50.22,50.22,0,0,1-33.9-13.6Z"/><path class="cls-1" d="M160.23,115.41h-50A16.34,16.34,0,0,0,126.33,129a50.22,50.22,0,0,0,33.9-13.6Z"/></svg>